2015-10-13_Deck_Slab.ufo
<glyph name="hyphen" format="1">
	<unicode hex="002D"/>
	<advance width="334"/>
	<outline>
		<contour>
			<point x="290" y="235" type="line"/>
			<point x="292" y="241"/>
			<point x="293" y="250"/>
			<point x="293" y="258" type="curve" smooth="yes"/>
			<point x="293" y="269"/>
			<point x="291" y="279"/>
			<point x="288" y="287" type="curve"/>
			<point x="54" y="265" type="line"/>
			<point x="52" y="259"/>
			<point x="51" y="250"/>
			<point x="51" y="242" type="curve" smooth="yes"/>
			<point x="51" y="231"/>
			<point x="53" y="221"/>
			<point x="56" y="213" type="curve"/>
		</contour>
	</outline>
</glyph>
<glyph name="zero" format="1">
	<unicode hex="0030"/>
	<advance width="580"/>
	<outline>
		<contour>
			<point x="109" y="323" type="curve" smooth="yes"/>
			<point x="109" y="462"/>
			<point x="155" y="608"/>
			<point x="290" y="608" type="curve" smooth="yes"/>
			<point x="425" y="608"/>
			<point x="471" y="462"/>
			<point x="471" y="323" type="curve" smooth="yes"/>
			<point x="471" y="183"/>
			<point x="425" y="37"/>
			<point x="290" y="37" type="curve" smooth="yes"/>
			<point x="155" y="37"/>
			<point x="109" y="183"/>
		</contour>
		<contour>
			<point x="530" y="323" type="curve" smooth="yes"/>
			<point x="530" y="479"/>
			<point x="469" y="655"/>
			<point x="290" y="655" type="curve" smooth="yes"/>
			<point x="111" y="655"/>
			<point x="50" y="479"/>
			<point x="50" y="323" type="curve" smooth="yes"/>
			<point x="50" y="166"/>
			<point x="111" y="-10"/>
			<point x="290" y="-10" type="curve" smooth="yes"/>
			<point x="469" y="-10"/>
			<point x="530" y="166"/>
		</contour>
	</outline>
</glyph>
<glyph name="one" format="1">
	<unicode hex="0031"/>
	<advance width="422"/>
	<outline>
		<contour>
			<point x="212" y="44" type="line"/>
			<point x="85" y="36" type="line"/>
			<point x="81" y="31"/>
			<point x="78" y="23"/>
			<point x="78" y="16" type="curve" smooth="yes"/>
			<point x="78" y="12"/>
			<point x="80" y="3"/>
			<point x="82" y="0" type="curve"/>
			<point x="375" y="0" type="line"/>
			<point x="377" y="8" type="line" smooth="yes"/>
			<point x="380" y="18"/>
			<point x="382" y="28"/>
			<point x="382" y="32" type="curve" smooth="yes"/>
			<point x="382" y="41"/>
			<point x="377" y="46"/>
			<point x="366" y="46" type="curve" smooth="yes"/>
			<point x="268" y="46" type="line"/>
			<point x="268" y="625" type="line"/>
			<point x="260" y="636"/>
			<point x="251" y="643"/>
			<point x="234" y="650" type="curve"/>
			<point x="45" y="527" type="line"/>
			<point x="49" y="511"/>
			<point x="55" y="500"/>
			<point x="63" y="490" type="curve"/>
			<point x="212" y="577" type="line"/>
		</contour>
	</outline>
</glyph>
<glyph name="three" format="1">
	<unicode hex="0033"/>
	<advance width="486"/>
	<outline>
		<contour>
			<point x="430" y="200" type="curve" smooth="yes"/>
			<point x="430" y="289"/>
			<point x="378" y="391"/>
			<point x="233" y="391" type="curve" smooth="yes"/>
			<point x="222" y="391" type="line"/>
			<point x="418" y="612" type="line"/>
			<point x="410" y="624"/>
			<point x="400" y="636"/>
			<point x="389" y="645" type="curve"/>
			<point x="85" y="645" type="line"/>
			<point x="76" y="638"/>
			<point x="67" y="628"/>
			<point x="61" y="619" type="curve"/>
			<point x="59" y="507" type="line"/>
			<point x="62" y="505"/>
			<point x="71" y="503"/>
			<point x="76" y="503" type="curve" smooth="yes"/>
			<point x="82" y="503"/>
			<point x="90" y="506"/>
			<point x="95" y="510" type="curve"/>
			<point x="120" y="601" type="line"/>
			<point x="344" y="601" type="line"/>
			<point x="144" y="376" type="line"/>
			<point x="146" y="364"/>
			<point x="151" y="352"/>
			<point x="160" y="337" type="curve"/>
			<point x="175" y="341"/>
			<point x="196" y="345"/>
			<point x="221" y="345" type="curve" smooth="yes"/>
			<point x="315" y="345"/>
			<point x="373" y="289"/>
			<point x="373" y="200" type="curve" smooth="yes"/>
			<point x="373" y="98"/>
			<point x="298" y="41"/>
			<point x="190" y="41" type="curve" smooth="yes"/>
			<point x="130" y="41"/>
			<point x="88" y="59"/>
			<point x="41" y="83" type="curve"/>
			<point x="31" y="72"/>
			<point x="25" y="56"/>
			<point x="25" y="42" type="curve"/>
			<point x="68" y="14"/>
			<point x="129" y="-10"/>
			<point x="195" y="-10" type="curve" smooth="yes"/>
			<point x="309" y="-10"/>
			<point x="430" y="61"/>
		</contour>
	</outline>
</glyph>
<glyph name="four" format="1">
	<unicode hex="0034"/>
	<advance width="561"/>
	<outline>
		<contour>
			<point x="257" y="36" type="line"/>
			<point x="253" y="31"/>
			<point x="250" y="23"/>
			<point x="250" y="16" type="curve" smooth="yes"/>
			<point x="250" y="12"/>
			<point x="252" y="3"/>
			<point x="254" y="0" type="curve"/>
			<point x="476" y="0" type="line"/>
			<point x="478" y="8" type="line" smooth="yes"/>
			<point x="481" y="18"/>
			<point x="483" y="28"/>
			<point x="483" y="32" type="curve" smooth="yes"/>
			<point x="483" y="41"/>
			<point x="478" y="46"/>
			<point x="467" y="46" type="curve" smooth="yes"/>
			<point x="409" y="46" type="line"/>
			<point x="409" y="174" type="line"/>
			<point x="509" y="174" type="line"/>
			<point x="511" y="181" type="line" smooth="yes"/>
			<point x="514" y="191"/>
			<point x="516" y="201"/>
			<point x="516" y="205" type="curve" smooth="yes"/>
			<point x="516" y="214"/>
			<point x="511" y="219"/>
			<point x="500" y="219" type="curve" smooth="yes"/>
			<point x="409" y="219" type="line"/>
			<point x="409" y="631" type="line"/>
			<point x="401" y="642"/>
			<point x="388" y="647"/>
			<point x="368" y="650" type="curve"/>
			<point x="40" y="212" type="line"/>
			<point x="43" y="198"/>
			<point x="56" y="183"/>
			<point x="68" y="174" type="curve"/>
			<point x="354" y="174" type="line"/>
			<point x="354" y="44" type="line"/>
		</contour>
		<contour>
			<point x="106" y="219" type="line"/>
			<point x="354" y="554" type="line"/>
			<point x="354" y="219" type="line"/>
		</contour>
	</outline>
</glyph>
<glyph name="seven" format="1">
	<unicode hex="0037"/>
	<advance width="467"/>
	<outline>
		<contour>
			<point x="66" y="645" type="line"/>
			<point x="57" y="638"/>
			<point x="48" y="628"/>
			<point x="42" y="619" type="curve"/>
			<point x="40" y="485" type="line"/>
			<point x="43" y="483"/>
			<point x="52" y="481"/>
			<point x="56" y="481" type="curve" smooth="yes"/>
			<point x="63" y="481"/>
			<point x="71" y="484"/>
			<point x="76" y="488" type="curve"/>
			<point x="101" y="597" type="line"/>
			<point x="398" y="597" type="line"/>
			<point x="107" y="21" type="line"/>
			<point x="121" y="3"/>
			<point x="137" y="-3"/>
			<point x="157" y="-5" type="curve"/>
			<point x="467" y="617" type="line"/>
			<point x="459" y="629"/>
			<point x="450" y="638"/>
			<point x="437" y="645" type="curve"/>
		</contour>
	</outline>
</glyph>
<glyph name="J" format="1">
	<unicode hex="004A"/>
	<advance width="306"/>
	<outline>
		<contour>
			<point x="181" y="601" type="line"/>
			<point x="258" y="609" type="line"/>
			<point x="262" y="614"/>
			<point x="265" y="622"/>
			<point x="265" y="629" type="curve" smooth="yes"/>
			<point x="265" y="633"/>
			<point x="263" y="642"/>
			<point x="261" y="645" type="curve"/>
			<point x="48" y="645" type="line"/>
			<point x="46" y="637" type="line" smooth="yes"/>
			<point x="43" y="627"/>
			<point x="41" y="617"/>
			<point x="41" y="613" type="curve" smooth="yes"/>
			<point x="41" y="604"/>
			<point x="46" y="599"/>
			<point x="57" y="599" type="curve" smooth="yes"/>
			<point x="125" y="599" type="line"/>
			<point x="125" y="184" type="line" smooth="yes"/>
			<point x="125" y="54"/>
			<point x="89" y="-15"/>
			<point x="-28" y="-108" type="curve"/>
			<point x="-24" y="-123"/>
			<point x="-17" y="-133"/>
			<point x="-4" y="-142" type="curve"/>
			<point x="133" y="-54"/>
			<point x="181" y="35"/>
			<point x="181" y="201" type="curve" smooth="yes"/>
		</contour>
	</outline>
</glyph>
<glyph name="M" format="1">
	<unicode hex="004D"/>
	<advance width="864"/>
	<outline>
		<contour>
			<point x="683" y="645" type="line"/>
			<point x="432" y="152" type="line"/>
			<point x="177" y="645" type="line"/>
			<point x="58" y="645" type="line"/>
			<point x="56" y="637" type="line" smooth="yes"/>
			<point x="53" y="627"/>
			<point x="51" y="617"/>
			<point x="51" y="613" type="curve" smooth="yes"/>
			<point x="51" y="604"/>
			<point x="56" y="599"/>
			<point x="67" y="599" type="curve" smooth="yes"/>
			<point x="125" y="599" type="line"/>
			<point x="125" y="44" type="line"/>
			<point x="58" y="36" type="line"/>
			<point x="54" y="31"/>
			<point x="51" y="23"/>
			<point x="51" y="16" type="curve" smooth="yes"/>
			<point x="51" y="12"/>
			<point x="53" y="3"/>
			<point x="55" y="0" type="curve"/>
			<point x="244" y="0" type="line"/>
			<point x="246" y="8" type="line" smooth="yes"/>
			<point x="249" y="18"/>
			<point x="251" y="28"/>
			<point x="251" y="32" type="curve" smooth="yes"/>
			<point x="251" y="41"/>
			<point x="246" y="46"/>
			<point x="235" y="46" type="curve" smooth="yes"/>
			<point x="177" y="46" type="line"/>
			<point x="177" y="528" type="line"/>
			<point x="408" y="80" type="line"/>
			<point x="416" y="77"/>
			<point x="423" y="76"/>
			<point x="430" y="76" type="curve" smooth="yes"/>
			<point x="439" y="76"/>
			<point x="447" y="78"/>
			<point x="453" y="80" type="curve"/>
			<point x="683" y="534" type="line"/>
			<point x="683" y="44" type="line"/>
			<point x="616" y="36" type="line"/>
			<point x="612" y="31"/>
			<point x="609" y="23"/>
			<point x="609" y="16" type="curve" smooth="yes"/>
			<point x="609" y="12"/>
			<point x="611" y="3"/>
			<point x="613" y="0" type="curve"/>
			<point x="806" y="0" type="line"/>
			<point x="808" y="8" type="line" smooth="yes"/>
			<point x="811" y="18"/>
			<point x="813" y="28"/>
			<point x="813" y="32" type="curve" smooth="yes"/>
			<point x="813" y="41"/>
			<point x="808" y="46"/>
			<point x="797" y="46" type="curve" smooth="yes"/>
			<point x="739" y="46" type="line"/>
			<point x="739" y="601" type="line"/>
			<point x="806" y="609" type="line"/>
			<point x="810" y="614"/>
			<point x="813" y="622"/>
			<point x="813" y="629" type="curve" smooth="yes"/>
			<point x="813" y="633"/>
			<point x="811" y="642"/>
			<point x="809" y="645" type="curve"/>
		</contour>
	</outline>
</glyph>
<glyph name="Q" format="1">
	<unicode hex="0051"/>
	<advance width="694"/>
	<outline>
		<contour>
			<point x="651" y="-105" type="curve"/>
			<point x="656" y="-91"/>
			<point x="657" y="-78"/>
			<point x="651" y="-64" type="curve"/>
			<point x="542" y="-52"/>
			<point x="477" y="-38"/>
			<point x="422" y="0" type="curve"/>
			<point x="557" y="33"/>
			<point x="644" y="152"/>
			<point x="644" y="323" type="curve" smooth="yes"/>
			<point x="644" y="523"/>
			<point x="526" y="655"/>
			<point x="347" y="655" type="curve" smooth="yes"/>
			<point x="168" y="655"/>
			<point x="50" y="523"/>
			<point x="50" y="323" type="curve" smooth="yes"/>
			<point x="50" y="124"/>
			<point x="166" y="-7"/>
			<point x="342" y="-9" type="curve"/>
			<point x="417" y="-72"/>
			<point x="524" y="-107"/>
		</contour>
		<contour>
			<point x="109" y="323" type="curve" smooth="yes"/>
			<point x="109" y="495"/>
			<point x="203" y="608"/>
			<point x="347" y="608" type="curve" smooth="yes"/>
			<point x="491" y="608"/>
			<point x="585" y="495"/>
			<point x="585" y="323" type="curve" smooth="yes"/>
			<point x="585" y="150"/>
			<point x="491" y="37"/>
			<point x="347" y="37" type="curve" smooth="yes"/>
			<point x="203" y="37"/>
			<point x="109" y="150"/>
		</contour>
	</outline>
</glyph>
<glyph name="V" format="1">
	<unicode hex="0056"/>
	<advance width="645"/>
	<outline>
		<contour>
			<point x="203" y="609" type="line"/>
			<point x="207" y="614"/>
			<point x="210" y="622"/>
			<point x="210" y="629" type="curve" smooth="yes"/>
			<point x="210" y="633"/>
			<point x="208" y="642"/>
			<point x="206" y="645" type="curve"/>
			<point x="10" y="645" type="line"/>
			<point x="8" y="637" type="line" smooth="yes"/>
			<point x="5" y="627"/>
			<point x="3" y="617"/>
			<point x="3" y="613" type="curve" smooth="yes"/>
			<point x="3" y="604"/>
			<point x="8" y="599"/>
			<point x="19" y="599" type="curve" smooth="yes"/>
			<point x="77" y="599" type="line"/>
			<point x="302" y="-5" type="line"/>
			<point x="320" y="-5"/>
			<point x="339" y="0"/>
			<point x="348" y="10" type="curve"/>
			<point x="568" y="601" type="line"/>
			<point x="635" y="609" type="line"/>
			<point x="639" y="614"/>
			<point x="642" y="622"/>
			<point x="642" y="629" type="curve" smooth="yes"/>
			<point x="642" y="633"/>
			<point x="640" y="642"/>
			<point x="638" y="645" type="curve"/>
			<point x="447" y="645" type="line"/>
			<point x="445" y="637" type="line" smooth="yes"/>
			<point x="442" y="627"/>
			<point x="440" y="617"/>
			<point x="440" y="613" type="curve" smooth="yes"/>
			<point x="440" y="604"/>
			<point x="445" y="599"/>
			<point x="456" y="599" type="curve" smooth="yes"/>
			<point x="514" y="599" type="line"/>
			<point x="325" y="83" type="line"/>
			<point x="136" y="601" type="line"/>
		</contour>
	</outline>
</glyph>
<glyph name="W" format="1">
	<unicode hex="0057"/>
	<advance width="932"/>
	<outline>
		<contour>
			<point x="853" y="601" type="line"/>
			<point x="920" y="609" type="line"/>
			<point x="924" y="614"/>
			<point x="927" y="622"/>
			<point x="927" y="629" type="curve" smooth="yes"/>
			<point x="927" y="633"/>
			<point x="925" y="642"/>
			<point x="923" y="645" type="curve"/>
			<point x="732" y="645" type="line"/>
			<point x="730" y="637" type="line" smooth="yes"/>
			<point x="727" y="627"/>
			<point x="725" y="617"/>
			<point x="725" y="613" type="curve" smooth="yes"/>
			<point x="725" y="604"/>
			<point x="730" y="599"/>
			<point x="741" y="599" type="curve" smooth="yes"/>
			<point x="799" y="599" type="line"/>
			<point x="660" y="103" type="line"/>
			<point x="491" y="650" type="line"/>
			<point x="473" y="650"/>
			<point x="454" y="645"/>
			<point x="445" y="635" type="curve"/>
			<point x="279" y="105" type="line"/>
			<point x="139" y="601" type="line"/>
			<point x="206" y="609" type="line"/>
			<point x="210" y="614"/>
			<point x="213" y="622"/>
			<point x="213" y="629" type="curve" smooth="yes"/>
			<point x="213" y="633"/>
			<point x="211" y="642"/>
			<point x="209" y="645" type="curve"/>
			<point x="13" y="645" type="line"/>
			<point x="11" y="637" type="line" smooth="yes"/>
			<point x="8" y="627"/>
			<point x="6" y="617"/>
			<point x="6" y="613" type="curve" smooth="yes"/>
			<point x="6" y="604"/>
			<point x="11" y="599"/>
			<point x="22" y="599" type="curve" smooth="yes"/>
			<point x="80" y="599" type="line"/>
			<point x="256" y="-5" type="line"/>
			<point x="274" y="-5"/>
			<point x="293" y="0"/>
			<point x="302" y="10" type="curve"/>
			<point x="468" y="539" type="line"/>
			<point x="636" y="-5" type="line"/>
			<point x="654" y="-5"/>
			<point x="673" y="0"/>
			<point x="682" y="10" type="curve"/>
		</contour>
	</outline>
</glyph>
<glyph name="X" format="1">
	<unicode hex="0058"/>
	<advance width="661"/>
	<outline>
		<contour>
			<point x="186" y="601" type="line"/>
			<point x="253" y="609" type="line"/>
			<point x="257" y="614"/>
			<point x="260" y="622"/>
			<point x="260" y="629" type="curve" smooth="yes"/>
			<point x="260" y="633"/>
			<point x="258" y="642"/>
			<point x="256" y="645" type="curve"/>
			<point x="56" y="645" type="line"/>
			<point x="54" y="637" type="line" smooth="yes"/>
			<point x="51" y="627"/>
			<point x="49" y="617"/>
			<point x="49" y="613" type="curve" smooth="yes"/>
			<point x="49" y="604"/>
			<point x="54" y="599"/>
			<point x="65" y="599" type="curve" smooth="yes"/>
			<point x="123" y="599" type="line"/>
			<point x="297" y="339" type="line"/>
			<point x="98" y="44" type="line"/>
			<point x="31" y="36" type="line"/>
			<point x="27" y="31"/>
			<point x="24" y="23"/>
			<point x="24" y="16" type="curve" smooth="yes"/>
			<point x="24" y="12"/>
			<point x="26" y="3"/>
			<point x="28" y="0" type="curve"/>
			<point x="223" y="0" type="line"/>
			<point x="225" y="8" type="line" smooth="yes"/>
			<point x="228" y="18"/>
			<point x="230" y="28"/>
			<point x="230" y="32" type="curve" smooth="yes"/>
			<point x="230" y="41"/>
			<point x="225" y="46"/>
			<point x="214" y="46" type="curve" smooth="yes"/>
			<point x="156" y="46" type="line"/>
			<point x="327" y="302" type="line"/>
			<point x="499" y="44" type="line"/>
			<point x="432" y="36" type="line"/>
			<point x="428" y="31"/>
			<point x="425" y="23"/>
			<point x="425" y="16" type="curve" smooth="yes"/>
			<point x="425" y="12"/>
			<point x="427" y="3"/>
			<point x="429" y="0" type="curve"/>
			<point x="629" y="0" type="line"/>
			<point x="631" y="8" type="line" smooth="yes"/>
			<point x="634" y="18"/>
			<point x="636" y="28"/>
			<point x="636" y="32" type="curve" smooth="yes"/>
			<point x="636" y="41"/>
			<point x="631" y="46"/>
			<point x="620" y="46" type="curve" smooth="yes"/>
			<point x="562" y="46" type="line"/>
			<point x="364" y="340" type="line"/>
			<point x="540" y="601" type="line"/>
			<point x="607" y="609" type="line"/>
			<point x="611" y="614"/>
			<point x="614" y="622"/>
			<point x="614" y="629" type="curve" smooth="yes"/>
			<point x="614" y="633"/>
			<point x="612" y="642"/>
			<point x="610" y="645" type="curve"/>
			<point x="415" y="645" type="line"/>
			<point x="413" y="637" type="line" smooth="yes"/>
			<point x="410" y="627"/>
			<point x="408" y="617"/>
			<point x="408" y="613" type="curve" smooth="yes"/>
			<point x="408" y="604"/>
			<point x="413" y="599"/>
			<point x="424" y="599" type="curve" smooth="yes"/>
			<point x="482" y="599" type="line"/>
			<point x="334" y="377" type="line"/>
		</contour>
	</outline>
</glyph>
<glyph name="asciicircum" format="1">
	<unicode hex="005E"/>
	<advance width="580"/>
	<outline>
		<contour>
			<point x="443" y="223" type="line"/>
			<point x="456" y="222"/>
			<point x="476" y="227"/>
			<point x="487" y="235" type="curve"/>
			<point x="316" y="645" type="line"/>
			<point x="306" y="647"/>
			<point x="299" y="648"/>
			<point x="290" y="648" type="curve" smooth="yes"/>
			<point x="281" y="648"/>
			<point x="274" y="647"/>
			<point x="264" y="645" type="curve"/>
			<point x="93" y="235" type="line"/>
			<point x="104" y="227"/>
			<point x="126" y="222"/>
			<point x="139" y="223" type="curve"/>
			<point x="291" y="583" type="line"/>
		</contour>
	</outline>
</glyph>
<glyph name="underscore" format="1">
	<unicode hex="005F"/>
	<advance width="500"/>
	<outline>
		<contour>
			<point x="500" y="-111" type="line"/>
			<point x="500" y="-63" type="line"/>
			<point x="0" y="-63" type="line"/>
			<point x="0" y="-111" type="line"/>
		</contour>
	</outline>
</glyph>
<glyph name="a" format="1">
	<unicode hex="0061"/>
	<advance width="521"/>
	<outline>
		<contour>
			<point x="401" y="-5" type="curve"/>
			<point x="494" y="14" type="line"/>
			<point x="498" y="21"/>
			<point x="500" y="27"/>
			<point x="500" y="33" type="curve" smooth="yes"/>
			<point x="500" y="37"/>
			<point x="499" y="42"/>
			<point x="497" y="47" type="curve"/>
			<point x="421" y="47" type="line"/>
			<point x="421" y="311" type="line" smooth="yes"/>
			<point x="421" y="443"/>
			<point x="358" y="510"/>
			<point x="233" y="510" type="curve" smooth="yes"/>
			<point x="174" y="510"/>
			<point x="113" y="490"/>
			<point x="60" y="454" type="curve"/>
			<point x="60" y="444"/>
			<point x="69" y="425"/>
			<point x="79" y="417" type="curve"/>
			<point x="124" y="447"/>
			<point x="182" y="465"/>
			<point x="230" y="465" type="curve" smooth="yes"/>
			<point x="321" y="465"/>
			<point x="369" y="412"/>
			<point x="369" y="311" type="curve" smooth="yes"/>
			<point x="369" y="271" type="line"/>
			<point x="326" y="276"/>
			<point x="284" y="280"/>
			<point x="252" y="280" type="curve" smooth="yes"/>
			<point x="116" y="280"/>
			<point x="37" y="225"/>
			<point x="37" y="130" type="curve" smooth="yes"/>
			<point x="37" y="47"/>
			<point x="99" y="-10"/>
			<point x="191" y="-10" type="curve" smooth="yes"/>
			<point x="266" y="-10"/>
			<point x="330" y="26"/>
			<point x="372" y="89" type="curve"/>
			<point x="367" y="20" type="line"/>
			<point x="375" y="9"/>
			<point x="386" y="1"/>
		</contour>
		<contour>
			<point x="196" y="34" type="curve" smooth="yes"/>
			<point x="133" y="34"/>
			<point x="92" y="73"/>
			<point x="92" y="132" type="curve" smooth="yes"/>
			<point x="92" y="201"/>
			<point x="148" y="237"/>
			<point x="253" y="237" type="curve" smooth="yes"/>
			<point x="285" y="237"/>
			<point x="326" y="233"/>
			<point x="369" y="228" type="curve"/>
			<point x="369" y="188" type="line" smooth="yes"/>
			<point x="369" y="109"/>
			<point x="284" y="34"/>
		</contour>
	</outline>
</glyph>
<glyph name="d" format="1">
	<unicode hex="0064"/>
	<advance width="593"/>
	<outline>
		<contour>
			<point x="278" y="510" type="curve" smooth="yes"/>
			<point x="136" y="510"/>
			<point x="43" y="405"/>
			<point x="43" y="245" type="curve" smooth="yes"/>
			<point x="43" y="95"/>
			<point x="126" y="-10"/>
			<point x="243" y="-10" type="curve" smooth="yes"/>
			<point x="321" y="-10"/>
			<point x="391" y="39"/>
			<point x="426" y="115" type="curve"/>
			<point x="419" y="20" type="line"/>
			<point x="427" y="9"/>
			<point x="438" y="1"/>
			<point x="453" y="-5" type="curve"/>
			<point x="546" y="14" type="line"/>
			<point x="550" y="21"/>
			<point x="552" y="27"/>
			<point x="552" y="33" type="curve" smooth="yes"/>
			<point x="552" y="37"/>
			<point x="551" y="42"/>
			<point x="549" y="47" type="curve"/>
			<point x="473" y="47" type="line"/>
			<point x="473" y="650" type="line"/>
			<point x="465" y="661"/>
			<point x="454" y="669"/>
			<point x="439" y="675" type="curve"/>
			<point x="341" y="656" type="line"/>
			<point x="337" y="649"/>
			<point x="335" y="643"/>
			<point x="335" y="637" type="curve" smooth="yes"/>
			<point x="335" y="633"/>
			<point x="336" y="628"/>
			<point x="338" y="623" type="curve"/>
			<point x="419" y="623" type="line"/>
			<point x="419" y="458" type="line"/>
			<point x="378" y="492"/>
			<point x="330" y="510"/>
		</contour>
		<contour>
			<point x="100" y="245" type="curve" smooth="yes"/>
			<point x="100" y="381"/>
			<point x="168" y="465"/>
			<point x="278" y="465" type="curve" smooth="yes"/>
			<point x="326" y="465"/>
			<point x="375" y="445"/>
			<point x="419" y="407" type="curve"/>
			<point x="419" y="234" type="line" smooth="yes"/>
			<point x="419" y="127"/>
			<point x="340" y="34"/>
			<point x="248" y="34" type="curve" smooth="yes"/>
			<point x="161" y="34"/>
			<point x="100" y="121"/>
		</contour>
	</outline>
</glyph>
<glyph name="e" format="1">
	<unicode hex="0065"/>
	<advance width="498"/>
	<outline>
		<contour>
			<point x="98" y="250" type="curve"/>
			<point x="98" y="261" type="line"/>
			<point x="437" y="261" type="line"/>
			<point x="446" y="278"/>
			<point x="450" y="286"/>
			<point x="455" y="301" type="curve"/>
			<point x="455" y="435"/>
			<point x="388" y="510"/>
			<point x="269" y="510" type="curve" smooth="yes"/>
			<point x="131" y="510"/>
			<point x="43" y="408"/>
			<point x="43" y="250" type="curve" smooth="yes"/>
			<point x="43" y="94"/>
			<point x="135" y="-10"/>
			<point x="275" y="-10" type="curve" smooth="yes"/>
			<point x="334" y="-10"/>
			<point x="396" y="7"/>
			<point x="449" y="37" type="curve"/>
			<point x="449" y="49"/>
			<point x="441" y="67"/>
			<point x="433" y="74" type="curve"/>
			<point x="398" y="53"/>
			<point x="336" y="38"/>
			<point x="284" y="38" type="curve" smooth="yes"/>
			<point x="171" y="38"/>
			<point x="98" y="121"/>
		</contour>
		<contour>
			<point x="269" y="466" type="curve" smooth="yes"/>
			<point x="354" y="466"/>
			<point x="400" y="410"/>
			<point x="400" y="304" type="curve"/>
			<point x="102" y="304" type="line"/>
			<point x="118" y="403"/>
			<point x="181" y="466"/>
		</contour>
	</outline>
</glyph>
<glyph name="l" format="1">
	<unicode hex="006C"/>
	<advance width="284"/>
	<outline>
		<contour>
			<point x="115" y="41" type="line"/>
			<point x="37" y="33" type="line"/>
			<point x="33" y="26"/>
			<point x="31" y="20"/>
			<point x="31" y="14" type="curve" smooth="yes"/>
			<point x="31" y="10"/>
			<point x="32" y="5"/>
			<point x="34" y="0" type="curve"/>
			<point x="247" y="0" type="line"/>
			<point x="249" y="8" type="line" smooth="yes"/>
			<point x="252" y="19"/>
			<point x="253" y="26"/>
			<point x="253" y="29" type="curve" smooth="yes"/>
			<point x="253" y="38"/>
			<point x="248" y="43"/>
			<point x="237" y="43" type="curve" smooth="yes"/>
			<point x="169" y="43" type="line"/>
			<point x="169" y="650" type="line"/>
			<point x="161" y="661"/>
			<point x="150" y="669"/>
			<point x="135" y="675" type="curve"/>
			<point x="32" y="656" type="line"/>
			<point x="28" y="649"/>
			<point x="26" y="643"/>
			<point x="26" y="637" type="curve" smooth="yes"/>
			<point x="26" y="633"/>
			<point x="27" y="628"/>
			<point x="29" y="623" type="curve"/>
			<point x="115" y="623" type="line"/>
		</contour>
	</outline>
</glyph>
<glyph name="q" format="1">
	<unicode hex="0071"/>
	<advance width="583"/>
	<outline>
		<contour>
			<point x="278" y="510" type="curve" smooth="yes"/>
			<point x="136" y="510"/>
			<point x="43" y="405"/>
			<point x="43" y="245" type="curve" smooth="yes"/>
			<point x="43" y="95"/>
			<point x="126" y="-10"/>
			<point x="243" y="-10" type="curve" smooth="yes"/>
			<point x="316" y="-10"/>
			<point x="382" y="32"/>
			<point x="419" y="100" type="curve"/>
			<point x="419" y="-144" type="line"/>
			<point x="321" y="-152" type="line"/>
			<point x="317" y="-159"/>
			<point x="315" y="-165"/>
			<point x="315" y="-171" type="curve" smooth="yes"/>
			<point x="315" y="-175"/>
			<point x="316" y="-180"/>
			<point x="318" y="-185" type="curve"/>
			<point x="541" y="-185" type="line"/>
			<point x="543" y="-177" type="line" smooth="yes"/>
			<point x="546" y="-166"/>
			<point x="547" y="-159"/>
			<point x="547" y="-156" type="curve" smooth="yes"/>
			<point x="547" y="-147"/>
			<point x="542" y="-142"/>
			<point x="531" y="-142" type="curve" smooth="yes"/>
			<point x="473" y="-142" type="line"/>
			<point x="473" y="500" type="line"/>
			<point x="469" y="501"/>
			<point x="461" y="502"/>
			<point x="456" y="502" type="curve" smooth="yes"/>
			<point x="451" y="502"/>
			<point x="443" y="501"/>
			<point x="439" y="500" type="curve"/>
			<point x="424" y="453" type="line"/>
			<point x="384" y="489"/>
			<point x="333" y="510"/>
		</contour>
		<contour>
			<point x="100" y="245" type="curve" smooth="yes"/>
			<point x="100" y="381"/>
			<point x="168" y="465"/>
			<point x="278" y="465" type="curve" smooth="yes"/>
			<point x="326" y="465"/>
			<point x="375" y="445"/>
			<point x="419" y="407" type="curve"/>
			<point x="419" y="234" type="line" smooth="yes"/>
			<point x="419" y="127"/>
			<point x="340" y="34"/>
			<point x="248" y="34" type="curve" smooth="yes"/>
			<point x="161" y="34"/>
			<point x="100" y="121"/>
		</contour>
	</outline>
</glyph>
<glyph name="r" format="1">
	<unicode hex="0072"/>
	<advance width="446"/>
	<outline>
		<contour>
			<point x="369" y="362" type="line"/>
			<point x="376" y="357"/>
			<point x="382" y="355"/>
			<point x="389" y="355" type="curve" smooth="yes"/>
			<point x="393" y="355"/>
			<point x="399" y="356"/>
			<point x="402" y="357" type="curve"/>
			<point x="409" y="462" type="line"/>
			<point x="401" y="475"/>
			<point x="388" y="490"/>
			<point x="377" y="501" type="curve"/>
			<point x="363" y="504"/>
			<point x="350" y="506"/>
			<point x="336" y="506" type="curve" smooth="yes"/>
			<point x="255" y="506"/>
			<point x="191" y="443"/>
			<point x="157" y="366" type="curve"/>
			<point x="169" y="480" type="line"/>
			<point x="161" y="491"/>
			<point x="150" y="499"/>
			<point x="135" y="505" type="curve"/>
			<point x="42" y="486" type="line"/>
			<point x="38" y="479"/>
			<point x="36" y="473"/>
			<point x="36" y="467" type="curve" smooth="yes"/>
			<point x="36" y="463"/>
			<point x="37" y="458"/>
			<point x="39" y="453" type="curve"/>
			<point x="115" y="453" type="line"/>
			<point x="115" y="41" type="line"/>
			<point x="47" y="33" type="line"/>
			<point x="43" y="26"/>
			<point x="41" y="20"/>
			<point x="41" y="14" type="curve" smooth="yes"/>
			<point x="41" y="10"/>
			<point x="42" y="5"/>
			<point x="44" y="0" type="curve"/>
			<point x="277" y="0" type="line"/>
			<point x="279" y="8" type="line" smooth="yes"/>
			<point x="282" y="19"/>
			<point x="283" y="26"/>
			<point x="283" y="29" type="curve" smooth="yes"/>
			<point x="283" y="38"/>
			<point x="278" y="43"/>
			<point x="267" y="43" type="curve" smooth="yes"/>
			<point x="169" y="43" type="line"/>
			<point x="169" y="256" type="line" smooth="yes"/>
			<point x="169" y="363"/>
			<point x="254" y="462"/>
			<point x="339" y="462" type="curve" smooth="yes"/>
			<point x="349" y="462" type="line"/>
		</contour>
	</outline>
</glyph>
<glyph name="s" format="1">
	<unicode hex="0073"/>
	<advance width="470"/>
	<outline>
		<contour>
			<point x="76" y="162" type="curve" smooth="yes"/>
			<point x="72" y="162"/>
			<point x="66" y="161"/>
			<point x="63" y="160" type="curve"/>
			<point x="56" y="64" type="line"/>
			<point x="64" y="51"/>
			<point x="77" y="36"/>
			<point x="88" y="25" type="curve"/>
			<point x="130" y="2"/>
			<point x="176" y="-10"/>
			<point x="226" y="-10" type="curve" smooth="yes"/>
			<point x="338" y="-10"/>
			<point x="420" y="51"/>
			<point x="420" y="139" type="curve" smooth="yes"/>
			<point x="420" y="232"/>
			<point x="328" y="265"/>
			<point x="255" y="283" type="curve" smooth="yes"/>
			<point x="168" y="304"/>
			<point x="118" y="318"/>
			<point x="118" y="380" type="curve" smooth="yes"/>
			<point x="118" y="437"/>
			<point x="164" y="467"/>
			<point x="239" y="467" type="curve" smooth="yes"/>
			<point x="274" y="467"/>
			<point x="303" y="460"/>
			<point x="335" y="445" type="curve"/>
			<point x="354" y="350" type="line"/>
			<point x="361" y="345"/>
			<point x="367" y="343"/>
			<point x="374" y="343" type="curve" smooth="yes"/>
			<point x="378" y="343"/>
			<point x="384" y="344"/>
			<point x="387" y="345" type="curve"/>
			<point x="394" y="441" type="line"/>
			<point x="386" y="454"/>
			<point x="373" y="469"/>
			<point x="362" y="480" type="curve"/>
			<point x="332" y="497"/>
			<point x="281" y="510"/>
			<point x="233" y="510" type="curve" smooth="yes"/>
			<point x="148" y="510"/>
			<point x="64" y="469"/>
			<point x="64" y="377" type="curve" smooth="yes"/>
			<point x="64" y="277"/>
			<point x="162" y="253"/>
			<point x="247" y="233" type="curve" smooth="yes"/>
			<point x="303" y="220"/>
			<point x="365" y="198"/>
			<point x="365" y="135" type="curve" smooth="yes"/>
			<point x="365" y="74"/>
			<point x="307" y="34"/>
			<point x="227" y="34" type="curve" smooth="yes"/>
			<point x="187" y="34"/>
			<point x="147" y="43"/>
			<point x="114" y="59" type="curve"/>
			<point x="96" y="155" type="line"/>
			<point x="89" y="160"/>
			<point x="83" y="162"/>
		</contour>
	</outline>
</glyph>
<glyph name="u" format="1">
	<unicode hex="0075"/>
	<advance width="601"/>
	<outline>
		<contour>
			<point x="481" y="480" type="line"/>
			<point x="473" y="491"/>
			<point x="462" y="499"/>
			<point x="447" y="505" type="curve"/>
			<point x="354" y="486" type="line"/>
			<point x="350" y="479"/>
			<point x="348" y="473"/>
			<point x="348" y="467" type="curve" smooth="yes"/>
			<point x="348" y="463"/>
			<point x="349" y="458"/>
			<point x="351" y="453" type="curve"/>
			<point x="427" y="453" type="line"/>
			<point x="427" y="234" type="line" smooth="yes"/>
			<point x="427" y="127"/>
			<point x="347" y="34"/>
			<point x="254" y="34" type="curve" smooth="yes"/>
			<point x="184" y="34"/>
			<point x="144" y="86"/>
			<point x="144" y="175" type="curve" smooth="yes"/>
			<point x="144" y="480" type="line"/>
			<point x="136" y="491"/>
			<point x="125" y="499"/>
			<point x="110" y="505" type="curve"/>
			<point x="17" y="486" type="line"/>
			<point x="13" y="479"/>
			<point x="11" y="473"/>
			<point x="11" y="467" type="curve" smooth="yes"/>
			<point x="11" y="463"/>
			<point x="12" y="458"/>
			<point x="14" y="453" type="curve"/>
			<point x="90" y="453" type="line"/>
			<point x="90" y="175" type="line" smooth="yes"/>
			<point x="90" y="57"/>
			<point x="147" y="-10"/>
			<point x="247" y="-10" type="curve" smooth="yes"/>
			<point x="330" y="-10"/>
			<point x="397" y="36"/>
			<point x="434" y="117" type="curve"/>
			<point x="427" y="20" type="line"/>
			<point x="435" y="9"/>
			<point x="446" y="1"/>
			<point x="461" y="-5" type="curve"/>
			<point x="554" y="14" type="line"/>
			<point x="558" y="21"/>
			<point x="560" y="27"/>
			<point x="560" y="33" type="curve" smooth="yes"/>
			<point x="560" y="37"/>
			<point x="559" y="42"/>
			<point x="557" y="47" type="curve"/>
			<point x="481" y="47" type="line"/>
		</contour>
	</outline>
</glyph>
<glyph name="x" format="1">
	<unicode hex="0078"/>
	<advance width="568"/>
	<outline>
		<contour>
			<point x="86" y="41" type="line"/>
			<point x="33" y="33" type="line"/>
			<point x="29" y="26"/>
			<point x="27" y="20"/>
			<point x="27" y="14" type="curve" smooth="yes"/>
			<point x="27" y="10"/>
			<point x="28" y="5"/>
			<point x="30" y="0" type="curve"/>
			<point x="201" y="0" type="line"/>
			<point x="203" y="8" type="line" smooth="yes"/>
			<point x="206" y="19"/>
			<point x="207" y="26"/>
			<point x="207" y="29" type="curve" smooth="yes"/>
			<point x="207" y="38"/>
			<point x="202" y="43"/>
			<point x="191" y="43" type="curve" smooth="yes"/>
			<point x="143" y="43" type="line"/>
			<point x="281" y="226" type="line"/>
			<point x="421" y="41" type="line"/>
			<point x="358" y="33" type="line"/>
			<point x="354" y="26"/>
			<point x="352" y="20"/>
			<point x="352" y="14" type="curve" smooth="yes"/>
			<point x="352" y="10"/>
			<point x="353" y="5"/>
			<point x="355" y="0" type="curve"/>
			<point x="529" y="0" type="line"/>
			<point x="531" y="8" type="line" smooth="yes"/>
			<point x="534" y="19"/>
			<point x="535" y="26"/>
			<point x="535" y="29" type="curve" smooth="yes"/>
			<point x="535" y="38"/>
			<point x="530" y="43"/>
			<point x="519" y="43" type="curve" smooth="yes"/>
			<point x="481" y="43" type="line"/>
			<point x="316" y="260" type="line"/>
			<point x="459" y="459" type="line"/>
			<point x="512" y="467" type="line"/>
			<point x="516" y="474"/>
			<point x="518" y="480"/>
			<point x="518" y="486" type="curve" smooth="yes"/>
			<point x="518" y="490"/>
			<point x="517" y="495"/>
			<point x="515" y="500" type="curve"/>
			<point x="344" y="500" type="line"/>
			<point x="342" y="492" type="line" smooth="yes"/>
			<point x="339" y="481"/>
			<point x="338" y="474"/>
			<point x="338" y="471" type="curve" smooth="yes"/>
			<point x="338" y="462"/>
			<point x="343" y="457"/>
			<point x="354" y="457" type="curve" smooth="yes"/>
			<point x="402" y="457" type="line"/>
			<point x="287" y="294" type="line"/>
			<point x="170" y="459" type="line"/>
			<point x="233" y="467" type="line"/>
			<point x="237" y="474"/>
			<point x="239" y="480"/>
			<point x="239" y="486" type="curve" smooth="yes"/>
			<point x="239" y="490"/>
			<point x="238" y="495"/>
			<point x="236" y="500" type="curve"/>
			<point x="62" y="500" type="line"/>
			<point x="60" y="492" type="line" smooth="yes"/>
			<point x="57" y="481"/>
			<point x="56" y="474"/>
			<point x="56" y="471" type="curve" smooth="yes"/>
			<point x="56" y="462"/>
			<point x="61" y="457"/>
			<point x="72" y="457" type="curve" smooth="yes"/>
			<point x="110" y="457" type="line"/>
			<point x="252" y="260" type="line"/>
		</contour>
	</outline>
</glyph>
<glyph name="y" format="1">
	<unicode hex="0079"/>
	<advance width="567"/>
	<outline>
		<contour>
			<point x="288" y="62" type="line"/>
			<point x="286" y="58" type="line"/>
			<point x="131" y="459" type="line"/>
			<point x="194" y="467" type="line"/>
			<point x="198" y="474"/>
			<point x="200" y="480"/>
			<point x="200" y="486" type="curve" smooth="yes"/>
			<point x="200" y="490"/>
			<point x="199" y="495"/>
			<point x="197" y="500" type="curve"/>
			<point x="27" y="500" type="line"/>
			<point x="25" y="492" type="line" smooth="yes"/>
			<point x="22" y="481"/>
			<point x="21" y="474"/>
			<point x="21" y="471" type="curve" smooth="yes"/>
			<point x="21" y="462"/>
			<point x="26" y="457"/>
			<point x="37" y="457" type="curve" smooth="yes"/>
			<point x="75" y="457" type="line"/>
			<point x="258" y="-6" type="line"/>
			<point x="221" y="-79"/>
			<point x="167" y="-137"/>
			<point x="74" y="-151" type="curve" smooth="yes"/>
			<point x="54" y="-154" type="line"/>
			<point x="49" y="-168"/>
			<point x="53" y="-181"/>
			<point x="58" y="-196" type="curve"/>
			<point x="78" y="-194" type="line" smooth="yes"/>
			<point x="189" y="-183"/>
			<point x="266" y="-114"/>
			<point x="315" y="9" type="curve" smooth="yes"/>
			<point x="493" y="459" type="line"/>
			<point x="546" y="467" type="line"/>
			<point x="550" y="474"/>
			<point x="552" y="480"/>
			<point x="552" y="486" type="curve" smooth="yes"/>
			<point x="552" y="490"/>
			<point x="551" y="495"/>
			<point x="549" y="500" type="curve"/>
			<point x="382" y="500" type="line"/>
			<point x="380" y="492" type="line" smooth="yes"/>
			<point x="377" y="481"/>
			<point x="376" y="474"/>
			<point x="376" y="471" type="curve" smooth="yes"/>
			<point x="376" y="462"/>
			<point x="381" y="457"/>
			<point x="392" y="457" type="curve" smooth="yes"/>
			<point x="440" y="457" type="line"/>
		</contour>
	</outline>
</glyph>
<glyph name="z" format="1">
	<unicode hex="007A"/>
	<advance width="480"/>
	<outline>
		<contour>
			<point x="422" y="466" type="line"/>
			<point x="417" y="478"/>
			<point x="408" y="493"/>
			<point x="401" y="500" type="curve"/>
			<point x="89" y="500" type="line"/>
			<point x="82" y="495"/>
			<point x="70" y="484"/>
			<point x="62" y="473" type="curve"/>
			<point x="69" y="357" type="line"/>
			<point x="74" y="355"/>
			<point x="79" y="354"/>
			<point x="83" y="354" type="curve" smooth="yes"/>
			<point x="89" y="354"/>
			<point x="95" y="356"/>
			<point x="102" y="360" type="curve"/>
			<point x="118" y="456" type="line"/>
			<point x="351" y="456" type="line"/>
			<point x="38" y="34" type="line"/>
			<point x="43" y="22"/>
			<point x="52" y="7"/>
			<point x="59" y="0" type="curve"/>
			<point x="409" y="0" type="line"/>
			<point x="416" y="5"/>
			<point x="428" y="16"/>
			<point x="436" y="27" type="curve"/>
			<point x="429" y="143" type="line"/>
			<point x="424" y="145"/>
			<point x="419" y="146"/>
			<point x="415" y="146" type="curve" smooth="yes"/>
			<point x="409" y="146"/>
			<point x="403" y="144"/>
			<point x="396" y="140" type="curve"/>
			<point x="380" y="44" type="line"/>
			<point x="109" y="44" type="line"/>
		</contour>
	</outline>
</glyph>
